<svg xmlns="http://www.w3.org/2000/svg" viewBox="0 0 563.66 590.48"
     width="563.66" height="590.48" role="img"
     aria-label="下半段 —— 答疑 Handler 内部:先分档,再决定查不查 FAQ、查不查资料">
  <title>下半段 —— 答疑 Handler 内部:先分档,再决定查不查 FAQ、查不查资料</title>
  <desc>flowchart TD
  %% caption: 下半段 —— 答疑 Handler 内部:先分档,再决定查不查 FAQ、查不查资料
  QA[&quot;答疑 Handler&quot;] --&gt; KIND{&quot;分档 _classify()&quot;}
  KIND --&gt;|&quot;事务 admin&quot;| FACTS[&quot;课程事务事实表&lt;br/&gt;带生效期,压过 FAQ&quot;]
  KIND --&gt;|&quot;事务 admin&quot;| FAQ[&quot;FAQ 检索&lt;br/&gt;阈值 4.0 + 实词闸门&quot;]
  KIND --&gt;|&quot;概念 concept&quot;| FAQ
  KIND --&gt;|&quot;概念 concept&quot;| RAG[&quot;BM25 RAG&lt;br/&gt;ma</desc>
  <style>
    text{font-family:"Segoe UI","Microsoft YaHei","PingFang SC","Hiragino Sans GB","Noto Sans CJK SC","Source Han Sans SC",sans-serif;dominant-baseline:middle}
    .s{font-size:.82em;fill:#59636e}
  </style>
  <rect width="563.66" height="590.48" fill="#ffffff"/>
<path d="M 281.83,66.72 L 281.83,97.72 L 281.83,97.72 L 281.83,128.72" stroke="#8c959f" stroke-width="1.6" fill="none" stroke-linejoin="round" stroke-linecap="round"/>
<polygon points="281.83,128.72 278.9,120.21 284.76,120.21" fill="#8c959f"/>
<path d="M 281.83,181.44 L 281.83,200.97 L 96.25,200.97 L 96.25,243.44" stroke="#8c959f" stroke-width="1.6" fill="none" stroke-linejoin="round" stroke-linecap="round"/>
<polygon points="96.25,243.44 93.32,234.93 99.18,234.93" fill="#8c959f"/>
<rect x="156.21" y="190.49" width="65.66" height="20.95" rx="4" fill="#ffffff"/>
<text x="161.21" y="200.97" font-size="11.5" fill="#1f2328">事务 admin</text>
<path d="M 281.83,181.44 L 281.83,223.91 L 270.19,223.91 L 270.19,243.44" stroke="#8c959f" stroke-width="1.6" fill="none" stroke-linejoin="round" stroke-linecap="round"/>
<polygon points="270.19,243.44 267.26,234.93 273.13,234.93" fill="#8c959f"/>
<rect x="243.18" y="213.44" width="65.66" height="20.95" rx="4" fill="#ffffff"/>
<text x="248.18" y="223.91" font-size="11.5" fill="#1f2328">事务 admin</text>
<path d="M 281.83,181.44 L 281.83,200.97 L 270.19,200.97 L 270.19,243.44" stroke="#8c959f" stroke-width="1.6" fill="none" stroke-linejoin="round" stroke-linecap="round"/>
<polygon points="270.19,243.44 267.26,234.93 273.13,234.93" fill="#8c959f"/>
<rect x="235.65" y="190.49" width="80.72" height="20.95" rx="4" fill="#ffffff"/>
<text x="240.65" y="200.97" font-size="11.5" fill="#1f2328">概念 concept</text>
<path d="M 281.83,181.44 L 281.83,200.97 L 455.77,200.97 L 455.77,243.44" stroke="#8c959f" stroke-width="1.6" fill="none" stroke-linejoin="round" stroke-linecap="round"/>
<polygon points="455.77,243.44 452.84,234.93 458.71,234.93" fill="#8c959f"/>
<rect x="328.44" y="190.49" width="80.72" height="20.95" rx="4" fill="#ffffff"/>
<text x="333.44" y="200.97" font-size="11.5" fill="#1f2328">概念 concept</text>
<path d="M 281.83,181.44 L 281.83,223.91 L 455.77,223.91 L 455.77,243.44" stroke="#8c959f" stroke-width="1.6" fill="none" stroke-linejoin="round" stroke-linecap="round"/>
<polygon points="455.77,243.44 452.84,234.93 458.71,234.93" fill="#8c959f"/>
<rect x="329.65" y="213.44" width="78.31" height="20.95" rx="4" fill="#ffffff"/>
<text x="334.65" y="223.91" font-size="11.5" fill="#1f2328">题号 problem</text>
<path d="M 96.25,302.88 L 96.25,333.88 L 281.83,333.88 L 281.83,364.88" stroke="#8c959f" stroke-width="1.6" fill="none" stroke-linejoin="round" stroke-linecap="round"/>
<polygon points="281.83,364.88 278.9,356.37 284.76,356.37" fill="#8c959f"/>
<path d="M 270.19,302.88 L 270.19,333.88 L 281.83,333.88 L 281.83,364.88" stroke="#8c959f" stroke-width="1.6" fill="none" stroke-linejoin="round" stroke-linecap="round"/>
<polygon points="281.83,364.88 278.9,356.37 284.76,356.37" fill="#8c959f"/>
<path d="M 455.77,302.88 L 455.77,333.88 L 281.83,333.88 L 281.83,364.88" stroke="#8c959f" stroke-width="1.6" fill="none" stroke-linejoin="round" stroke-linecap="round"/>
<polygon points="281.83,364.88 278.9,356.37 284.76,356.37" fill="#8c959f"/>
<path d="M 281.83,443.04 L 281.83,474.04 L 281.83,474.04 L 281.83,505.04" stroke="#8c959f" stroke-width="1.6" fill="none" stroke-linejoin="round" stroke-linecap="round"/>
<polygon points="281.83,505.04 278.9,496.53 284.76,496.53" fill="#8c959f"/>
<rect x="227.76" y="26" width="108.13" height="40.72" rx="6" fill="#ffffff" stroke="#d0d7de" stroke-width="1.4"/>
<text x="242.76" y="47.36" font-size="13" fill="#1f2328">答</text>
<text x="255.76" y="47.36" font-size="13" fill="#1f2328">疑</text>
<text x="268.76" y="47.36" font-size="13" fill="#1f2328"> </text>
<text x="272.66" y="47.36" font-size="13" fill="#1f2328">Handler</text>
<polygon points="281.83,128.72 384.26,155.08 281.83,181.44 179.4,155.08" fill="#ffffff" stroke="#d0d7de" stroke-width="1.4"/>
<text x="233.01" y="156.08" font-size="13" fill="#1f2328">分</text>
<text x="246.01" y="156.08" font-size="13" fill="#1f2328">档</text>
<text x="259.01" y="156.08" font-size="13" fill="#1f2328"> </text>
<text x="262.91" y="156.08" font-size="13" fill="#1f2328">_classify()</text>
<rect x="26" y="243.44" width="140.5" height="59.44" rx="6" fill="#ffffff" stroke="#d0d7de" stroke-width="1.4"/>
<text x="50.75" y="264.8" font-size="13" fill="#1f2328">课</text>
<text x="63.75" y="264.8" font-size="13" fill="#1f2328">程</text>
<text x="76.75" y="264.8" font-size="13" fill="#1f2328">事</text>
<text x="89.75" y="264.8" font-size="13" fill="#1f2328">务</text>
<text x="102.75" y="264.8" font-size="13" fill="#1f2328">事</text>
<text x="115.75" y="264.8" font-size="13" fill="#1f2328">实</text>
<text x="128.75" y="264.8" font-size="13" fill="#1f2328">表</text>
<text x="41" y="283.52" font-size="13" fill="#1f2328">带</text>
<text x="54" y="283.52" font-size="13" fill="#1f2328">生</text>
<text x="67" y="283.52" font-size="13" fill="#1f2328">效</text>
<text x="80" y="283.52" font-size="13" fill="#1f2328">期</text>
<text x="93" y="283.52" font-size="13" fill="#1f2328">,</text>
<text x="97.42" y="283.52" font-size="13" fill="#1f2328">压</text>
<text x="110.42" y="283.52" font-size="13" fill="#1f2328">过</text>
<text x="123.42" y="283.52" font-size="13" fill="#1f2328"> </text>
<text x="127.32" y="283.52" font-size="13" fill="#1f2328">FAQ</text>
<rect x="196.5" y="243.44" width="147.39" height="59.44" rx="6" fill="#ffffff" stroke="#d0d7de" stroke-width="1.4"/>
<text x="243.16" y="264.8" font-size="13" fill="#1f2328">FAQ</text>
<text x="267.33" y="264.8" font-size="13" fill="#1f2328"> </text>
<text x="271.23" y="264.8" font-size="13" fill="#1f2328">检</text>
<text x="284.23" y="264.8" font-size="13" fill="#1f2328">索</text>
<text x="211.5" y="283.52" font-size="13" fill="#1f2328">阈</text>
<text x="224.5" y="283.52" font-size="13" fill="#1f2328">值</text>
<text x="237.5" y="283.52" font-size="13" fill="#1f2328"> </text>
<text x="241.4" y="283.52" font-size="13" fill="#1f2328">4.0</text>
<text x="261.94" y="283.52" font-size="13" fill="#1f2328"> </text>
<text x="265.84" y="283.52" font-size="13" fill="#1f2328">+</text>
<text x="272.99" y="283.52" font-size="13" fill="#1f2328"> </text>
<text x="276.89" y="283.52" font-size="13" fill="#1f2328">实</text>
<text x="289.89" y="283.52" font-size="13" fill="#1f2328">词</text>
<text x="302.89" y="283.52" font-size="13" fill="#1f2328">闸</text>
<text x="315.89" y="283.52" font-size="13" fill="#1f2328">门</text>
<rect x="373.89" y="243.44" width="163.77" height="59.44" rx="6" fill="#ffffff" stroke="#d0d7de" stroke-width="1.4"/>
<text x="425.61" y="264.8" font-size="13" fill="#1f2328">BM25</text>
<text x="457.85" y="264.8" font-size="13" fill="#1f2328"> </text>
<text x="461.75" y="264.8" font-size="13" fill="#1f2328">RAG</text>
<text x="388.89" y="283.52" font-size="13" fill="#1f2328">materials/</text>
<text x="452.2" y="283.52" font-size="13" fill="#1f2328"> </text>
<text x="456.1" y="283.52" font-size="13" fill="#1f2328">分</text>
<text x="469.1" y="283.52" font-size="13" fill="#1f2328">块</text>
<text x="482.1" y="283.52" font-size="13" fill="#1f2328"> </text>
<text x="486" y="283.52" font-size="13" fill="#1f2328">top-7</text>
<rect x="212.81" y="364.88" width="138.03" height="78.16" rx="6" fill="#ffffff" stroke="#d0d7de" stroke-width="1.4"/>
<text x="254.79" y="386.24" font-size="13" fill="#1f2328">LLM</text>
<text x="278.97" y="386.24" font-size="13" fill="#1f2328"> </text>
<text x="282.87" y="386.24" font-size="13" fill="#1f2328">通</text>
<text x="295.87" y="386.24" font-size="13" fill="#1f2328">道</text>
<text x="227.81" y="404.96" font-size="13" fill="#1f2328">默</text>
<text x="240.81" y="404.96" font-size="13" fill="#1f2328">认</text>
<text x="253.81" y="404.96" font-size="13" fill="#1f2328"> </text>
<text x="257.71" y="404.96" font-size="13" fill="#1f2328">OpenCode</text>
<text x="316.73" y="404.96" font-size="13" fill="#1f2328"> </text>
<text x="320.63" y="404.96" font-size="13" fill="#1f2328">Go</text>
<text x="245.88" y="423.68" font-size="13" fill="#1f2328">MinMax</text>
<text x="287.88" y="423.68" font-size="13" fill="#1f2328"> </text>
<text x="291.77" y="423.68" font-size="13" fill="#1f2328">回</text>
<text x="304.77" y="423.68" font-size="13" fill="#1f2328">滚</text>
<rect x="247.33" y="505.04" width="69" height="59.44" rx="6" fill="#ffffff" stroke="#d0d7de" stroke-width="1.4"/>
<text x="265.32" y="526.4" font-size="13" fill="#1f2328">reply</text>
<text x="262.33" y="545.12" font-size="13" fill="#1f2328">回</text>
<text x="275.33" y="545.12" font-size="13" fill="#1f2328">微</text>
<text x="288.33" y="545.12" font-size="13" fill="#1f2328">信</text>
</svg>
